<?xml version="1.0" encoding="UTF-8" standalone="no"?>
<!-- Created with Inkscape (http://www.inkscape.org/) -->

<svg
   xmlns:osb="http://www.openswatchbook.org/uri/2009/osb"
   xmlns:dc="http://purl.org/dc/elements/1.1/"
   xmlns:cc="http://creativecommons.org/ns#"
   xmlns:rdf="http://www.w3.org/1999/02/22-rdf-syntax-ns#"
   xmlns:svg="http://www.w3.org/2000/svg"
   xmlns="http://www.w3.org/2000/svg"
   xmlns:xlink="http://www.w3.org/1999/xlink"
   xmlns:sodipodi="http://sodipodi.sourceforge.net/DTD/sodipodi-0.dtd"
   xmlns:inkscape="http://www.inkscape.org/namespaces/inkscape"
   width="250mm"
   height="148mm"
   viewBox="0 0 250 148"
   version="1.1"
   id="svg8"
   inkscape:version="0.92.1 r15371"
   sodipodi:docname="Logo.svg">
  <defs
     id="defs2">
    <linearGradient
       inkscape:collect="always"
       id="linearGradient4908">
      <stop
         style="stop-color:#225500;stop-opacity:1"
         offset="0"
         id="stop4904" />
      <stop
         style="stop-color:#55d400;stop-opacity:1"
         offset="1"
         id="stop4906" />
    </linearGradient>
    <linearGradient
       inkscape:collect="always"
       id="linearGradient4863">
      <stop
         style="stop-color:#225500;stop-opacity:1"
         offset="0"
         id="stop4859" />
      <stop
         style="stop-color:#44aa00;stop-opacity:1"
         offset="1"
         id="stop4861" />
    </linearGradient>
    <linearGradient
       inkscape:collect="always"
       id="linearGradient4855">
      <stop
         style="stop-color:#225500;stop-opacity:1"
         offset="0"
         id="stop4851" />
      <stop
         style="stop-color:#55d400;stop-opacity:1"
         offset="1"
         id="stop4853" />
    </linearGradient>
    <linearGradient
       id="linearGradient4626"
       osb:paint="solid">
      <stop
         style="stop-color:#000000;stop-opacity:1;"
         offset="0"
         id="stop4624" />
    </linearGradient>
    <radialGradient
       inkscape:collect="always"
       xlink:href="#linearGradient4855"
       id="radialGradient4857"
       cx="212.16646"
       cy="239.36055"
       fx="212.16646"
       fy="239.36055"
       r="15.064054"
       gradientTransform="matrix(1.1517066,4.102844e-6,5.3219028e-8,0.46468233,-41.703577,180.77251)"
       gradientUnits="userSpaceOnUse" />
    <radialGradient
       inkscape:collect="always"
       xlink:href="#linearGradient4863"
       id="radialGradient4865"
       cx="205.24802"
       cy="208.05803"
       fx="205.24802"
       fy="208.05803"
       r="14.131665"
       gradientTransform="matrix(1.2256527,-0.56610479,0.22634644,0.49005373,-93.407965,298.73228)"
       gradientUnits="userSpaceOnUse" />
    <radialGradient
       inkscape:collect="always"
       xlink:href="#linearGradient4908"
       id="radialGradient4910"
       cx="199.59656"
       cy="198.22353"
       fx="199.59656"
       fy="198.22353"
       r="9.7174206"
       gradientTransform="matrix(0.847038,-1.4671156,0.53472592,0.30872412,-75.009255,512.13485)"
       gradientUnits="userSpaceOnUse" />
    <radialGradient
       inkscape:collect="always"
       xlink:href="#linearGradient4908"
       id="radialGradient4910-7"
       cx="199.59656"
       cy="198.22353"
       fx="199.59656"
       fy="198.22353"
       r="9.7174206"
       gradientTransform="matrix(0.847038,-1.4671156,0.53472593,0.30872412,-75.00926,512.13485)"
       gradientUnits="userSpaceOnUse" />
    <radialGradient
       inkscape:collect="always"
       xlink:href="#linearGradient4908"
       id="radialGradient4857-2"
       cx="212.16646"
       cy="239.36055"
       fx="212.16646"
       fy="239.36055"
       r="15.064054"
       gradientTransform="matrix(1.1517066,4.113251e-6,5.4031201e-8,0.46468233,-41.703583,180.77251)"
       gradientUnits="userSpaceOnUse" />
  </defs>
  <sodipodi:namedview
     id="base"
     pagecolor="#ffffff"
     bordercolor="#666666"
     borderopacity="1.0"
     inkscape:pageopacity="0.0"
     inkscape:pageshadow="2"
     inkscape:zoom="0.67059167"
     inkscape:cx="580.53664"
     inkscape:cy="210.1943"
     inkscape:document-units="mm"
     inkscape:current-layer="layer1"
     showgrid="true"
     inkscape:window-width="1366"
     inkscape:window-height="746"
     inkscape:window-x="-8"
     inkscape:window-y="-8"
     inkscape:window-maximized="1">
    <inkscape:grid
       type="axonomgrid"
       id="grid4807"
       units="mm"
       empspacing="5"
       enabled="false" />
  </sodipodi:namedview>
  <metadata
     id="metadata5">
    <rdf:RDF>
      <cc:Work
         rdf:about="">
        <dc:format>image/svg+xml</dc:format>
        <dc:type
           rdf:resource="http://purl.org/dc/dcmitype/StillImage" />
        <dc:title></dc:title>
      </cc:Work>
    </rdf:RDF>
  </metadata>
  <g
     inkscape:label="Capa 1"
     inkscape:groupmode="layer"
     id="layer1"
     transform="translate(0,-149)">
    <path
       style="fill:#005500;fill-opacity:1;stroke-width:0.26458332"
       d="m 2.0239292,150.6058 c -2.67713928,8.34262 0.5550771,18.00665 8.4791058,25.35178 4.04588,3.74821 9.084363,6.67212 14.570363,8.45538 l -0.0041,0.0127 83.908382,28.75086 7.51294,-23.41269 C 78.294615,176.60144 40.167017,163.67542 2.0239418,150.60577 Z"
       id="rect4648"
       inkscape:connector-curvature="0"
       sodipodi:nodetypes="ccccccc" />
    <path
       style="fill:#008000;fill-opacity:1;stroke-width:0.26458332"
       d="m 3.9388386,166.049 c -1.7024522,8.62395 2.4657715,17.73567 10.9345294,23.90282 4.323786,3.1468 9.521669,5.34054 15.031326,6.34381 l -0.0026,0.0131 84.428166,16.80552 4.77759,-24.20231 C 80.667131,181.188 42.31815,173.68842 3.9387976,166.04895 Z"
       id="rect4648-8"
       inkscape:connector-curvature="0"
       sodipodi:nodetypes="ccccccc" />
    <path
       style="fill:#00aa00;fill-opacity:1;stroke-width:0.26458332"
       d="m 9.9339543,179.64473 c -1.7123811,8.49768 1.9415137,16.8162 9.5852887,21.82203 3.902616,2.55395 8.622508,4.09293 13.649062,4.45041 l -0.0026,0.0129 76.999755,6.85723 4.80548,-23.84792 C 79.913763,185.74756 44.936523,182.76181 9.9339783,179.64466 Z"
       id="rect4648-8-5"
       inkscape:connector-curvature="0"
       sodipodi:nodetypes="ccccccc" />
    <path
       style="fill:#005500;fill-opacity:1;stroke-width:0.26458332"
       d="m 17.190207,172.18361 c -1.290493,8.64596 2.504388,17.75246 9.955118,23.88917 3.803985,3.13124 8.343586,5.3037 13.127678,6.28234 l -0.002,0.0132 73.340147,16.42998 3.62146,-24.26404 C 83.83897,186.98117 50.52917,179.65238 17.190245,172.18361 Z"
       id="rect4648-6"
       inkscape:connector-curvature="0"
       sodipodi:nodetypes="ccccccc" />
    <path
       style="fill:#008000;fill-opacity:1;stroke-width:0.26458332"
       d="m 21.250882,187.21549 c -0.39649,8.7768 3.982619,17.22137 11.48775,22.15267 3.831585,2.51584 8.258564,3.96647 12.801999,4.19487 l -6.48e-4,0.0134 69.783647,4.91786 1.11256,-24.63128 c -31.781042,-2.31076 -63.463129,-4.41202 -95.185341,-6.64756 z"
       id="rect4648-8-2"
       inkscape:connector-curvature="0"
       sodipodi:nodetypes="ccccccc" />
    <path
       style="fill:#00aa00;fill-opacity:1;stroke-width:0.26458332"
       d="m 29.233236,199.83483 c -0.462052,8.6606 3.507485,16.37517 10.413311,20.23768 3.525641,1.97023 7.614796,2.81828 11.825086,2.45234 l -6.17e-4,0.0132 64.651534,-4.2378 1.29654,-24.30512 c -29.443023,1.86028 -58.796569,3.91321 -88.185846,5.83966 z"
       id="rect4648-8-5-0"
       inkscape:connector-curvature="0"
       sodipodi:nodetypes="ccccccc" />
    <path
       style="fill:#005500;fill-opacity:1;stroke-width:0.26458332"
       d="m 37.729277,186.99436 c -0.978411,8.64595 1.898946,17.75227 7.54786,23.88898 2.884065,3.13124 6.325727,5.30367 9.952881,6.28231 l -0.0016,0.0134 18.157032,5.36504 h 38.69945 l 1.49345,-13.19919 C 88.260356,201.79184 63.005824,194.46312 37.729277,186.99436 Z"
       id="rect4648-6-3"
       inkscape:connector-curvature="0" />
    <path
       style="fill:#008000;fill-opacity:1;stroke-width:0.26458332"
       d="m 43.306977,203.62168 c -0.308318,8.7768 3.097187,17.22135 8.933305,22.15265 2.979506,2.51584 6.421892,3.96618 9.954947,4.19458 l -5.29e-4,0.0134 12.115023,1.09812 42.539007,-7.25589 0.47645,-13.55524 c -24.713465,-2.31076 -49.350477,-4.41212 -74.018215,-6.64766 z"
       id="rect4648-8-2-0"
       inkscape:connector-curvature="0" />
    <path
       style="fill:#00aa00;fill-opacity:1;stroke-width:0.26458332"
       d="m 116.31754,209.8465 c -22.084546,2.45465 -44.101564,5.09996 -66.14583,7.61969 -0.346574,8.66993 2.630463,16.30461 7.810376,20.02772 2.544307,1.8271 5.480328,2.60146 8.511624,2.25619 l 49.20939,-14.52417 z"
       id="rect4648-8-5-0-1"
       inkscape:connector-curvature="0" />
    <path
       style="fill:#008000;fill-opacity:1"
       d="m 161.65683,157.69516 a 59.720236,58.964287 0 0 0 -59.72048,58.96386 59.720236,58.964287 0 0 0 59.72048,58.96436 59.720236,58.964287 0 0 0 26.19172,-6.01824 59.720236,58.964287 0 0 1 -54.51412,-58.7065 59.720236,58.964287 0 0 1 33.52831,-52.94613 59.720236,58.964287 0 0 0 -5.20591,-0.25735 z"
       id="path4485-1-9-5"
       inkscape:connector-curvature="0" />
    <path
       style="fill:#00d400;fill-opacity:1"
       d="m 161.65683,157.69516 a 59.720233,58.964287 0 0 0 -59.72048,58.96386 59.720233,58.964287 0 0 0 25.14316,48.0229 59.720236,58.964287 0 0 1 -7.0006,-27.61175 59.720236,58.964287 0 0 1 59.72052,-58.96435 59.720236,58.964287 0 0 1 34.57773,10.94196 59.720233,58.964287 0 0 0 -52.72033,-31.35262 z"
       id="path4485"
       inkscape:connector-curvature="0" />
    <path
       style="fill:#a0892c;fill-opacity:1;stroke-width:1"
       d="m 194.53703,167.46976 v 12.5548 a 59.720236,58.964287 0 0 1 19.84013,9.02322 59.720233,58.964287 0 0 0 -19.84013,-21.57802 z"
       id="path4485-0"
       inkscape:connector-curvature="0" />
    <ellipse
       style="fill:#a0892c;fill-opacity:1;stroke-width:0.26458332"
       id="path4793"
       cx="165.15102"
       cy="163.3129"
       rx="5.2784677"
       ry="3.1190951" />
    <ellipse
       style="fill:#241f1c;fill-opacity:1;stroke-width:0.26458332"
       id="path4799"
       cx="165.48051"
       cy="163.00783"
       rx="2.1799147"
       ry="1.4395822" />
    <path
       style="fill:url(#radialGradient4910);fill-opacity:1"
       d="m 187.88736,268.1416 c 5.59107,-8.14544 6.37676,-30.76427 15.90695,-25.43558 9.53019,5.32868 -10.10599,18.75514 -15.90695,25.43558 z"
       id="path4811"
       inkscape:connector-curvature="0"
       sodipodi:nodetypes="czc" />
    <path
       style="fill:url(#radialGradient4865);fill-opacity:1"
       d="m 188.31336,269.26701 c 9.19322,-3.61843 22.50875,-21.9194 27.42142,-12.16824 4.91267,9.75116 -18.87457,9.88116 -27.42142,12.16824 z"
       id="path4811-7"
       inkscape:connector-curvature="0"
       sodipodi:nodetypes="czc" />
    <path
       style="opacity:0.98999999;fill:url(#radialGradient4857);fill-opacity:1"
       d="m 188.31772,270.31091 c 9.6385,2.16969 30.93427,-5.49314 29.52201,5.33391 -1.41226,10.82705 -21.16607,-2.42575 -29.52201,-5.33391 z"
       id="path4811-7-1"
       inkscape:connector-curvature="0"
       sodipodi:nodetypes="czc" />
    <path
       style="fill:#241f1c;fill-opacity:1;stroke-width:1"
       d=""
       id="path4845"
       inkscape:connector-curvature="0"
       transform="matrix(0.26458333,0,0,0.26458333,0,70)" />
    <path
       style="fill:url(#radialGradient4910-7);fill-opacity:1;stroke-width:1"
       d="m 186.91817,268.0896 c -1.25785,-9.79929 -15.74238,-27.18972 -5.08529,-29.56585 10.65708,-2.37613 4.96005,20.71917 5.08529,29.56585 z"
       id="path4811-8"
       inkscape:connector-curvature="0"
       sodipodi:nodetypes="czc" />
    <path
       style="opacity:0.98999999;fill:url(#radialGradient4857-2);fill-opacity:1;stroke-width:1"
       d="m 187.97651,271.28868 c 5.64626,8.10727 26.53037,16.82983 18.17955,23.86427 -8.3508,7.03444 -13.97802,-16.07798 -18.17955,-23.86427 z"
       id="path4811-7-1-5"
       inkscape:connector-curvature="0"
       sodipodi:nodetypes="czc" />
    <text
       xml:space="preserve"
       style="font-style:normal;font-weight:normal;font-size:35.27777863px;line-height:1.25;font-family:sans-serif;text-align:center;letter-spacing:0px;word-spacing:0px;text-anchor:middle;fill:#000000;fill-opacity:1;stroke:none;stroke-width:0.26458332"
       x="191.09349"
       y="211.12784"
       id="text4962"><tspan
         sodipodi:role="line"
         id="tspan4960"
         x="191.09349"
         y="211.12784"
         style="stroke-width:0.26458332"><tspan
           style="font-style:normal;font-variant:normal;font-weight:bold;font-stretch:normal;font-family:'Script MT Bold';-inkscape-font-specification:'Script MT Bold,  Bold'"
           id="tspan4968">Carlos</tspan></tspan></text>
    <text
       xml:space="preserve"
       style="font-style:normal;font-weight:normal;font-size:35.63053513px;line-height:1.25;font-family:sans-serif;text-align:center;letter-spacing:0px;word-spacing:0px;text-anchor:middle;fill:#000000;fill-opacity:1;stroke:none;stroke-width:0.26458332"
       x="189.75078"
       y="237.1407"
       id="text4966"><tspan
         sodipodi:role="line"
         id="tspan4964"
         x="189.75078"
         y="237.1407"
         style="font-style:normal;font-variant:normal;font-weight:bold;font-stretch:normal;font-family:'Script MT Bold';-inkscape-font-specification:'Script MT Bold,  Bold';stroke-width:0.26458332">Rojas</tspan></text>
  </g>
</svg>
